<svg width="30" height="30" viewBox="0 0 30 30" fill="none" xmlns="http://www.w3.org/2000/svg">
    <path d="M6.4475 14.3638C6.35625 16.1088 6.46125 17.9662 4.9025 19.135C4.54413 19.4032 4.25333 19.7513 4.05324 20.1517C3.85316 20.5521 3.74932 20.9937 3.75 21.4413C3.75 22.6875 4.7275 23.75 6 23.75H24C25.2725 23.75 26.25 22.6875 26.25 21.4413C26.25 20.5338 25.8225 19.6787 25.0975 19.135C23.5388 17.9662 23.6438 16.1088 23.5525 14.3638C23.44 12.1714 22.4899 10.1059 20.8983 8.59387C19.3067 7.08187 17.1953 6.23881 15 6.23881C12.8047 6.23881 10.6933 7.08187 9.1017 8.59387C7.51013 10.1059 6.55999 12.1714 6.4475 14.3638Z" stroke="#D9D9D9" stroke-width="1.5" stroke-linecap="round" stroke-linejoin="round"/>
    <path d="M18.75 23.75C18.75 24.7446 18.3549 25.6984 17.6517 26.4017C16.9484 27.1049 15.9946 27.5 15 27.5C14.0054 27.5 13.0516 27.1049 12.3483 26.4017C11.6451 25.6984 11.25 24.7446 11.25 23.75M13.125 3.90625C13.125 4.94125 13.965 6.25 15 6.25C16.035 6.25 16.875 4.94125 16.875 3.90625C16.875 2.87125 16.035 2.5 15 2.5C13.965 2.5 13.125 2.87125 13.125 3.90625Z" stroke="#D9D9D9" stroke-width="1.5" stroke-linecap="round" stroke-linejoin="round"/>
</svg>