<svg width="30" height="30" viewBox="0 0 30 30" fill="none" xmlns="http://www.w3.org/2000/svg">
    <path d="M20.8594 4.6875C18.4395 4.6875 16.3207 5.72812 15 7.48711C13.6793 5.72812 11.5605 4.6875 9.14062 4.6875C7.21433 4.68967 5.36755 5.45585 4.00545 6.81795C2.64335 8.18005 1.87717 10.0268 1.875 11.9531C1.875 20.1562 14.0379 26.7961 14.5559 27.0703C14.6924 27.1438 14.845 27.1822 15 27.1822C15.155 27.1822 15.3076 27.1438 15.4441 27.0703C15.9621 26.7961 28.125 20.1562 28.125 11.9531C28.1228 10.0268 27.3566 8.18005 25.9946 6.81795C24.6325 5.45585 22.7857 4.68967 20.8594 4.6875ZM15 25.1719C12.8602 23.925 3.75 18.2449 3.75 11.9531C3.75186 10.524 4.3204 9.15397 5.33093 8.14343C6.34147 7.1329 7.71151 6.56436 9.14062 6.5625C11.4199 6.5625 13.3336 7.77656 14.1328 9.72656C14.2034 9.89851 14.3236 10.0456 14.478 10.1491C14.6324 10.2526 14.8141 10.3078 15 10.3078C15.1859 10.3078 15.3676 10.2526 15.522 10.1491C15.6764 10.0456 15.7966 9.89851 15.8672 9.72656C16.6664 7.77305 18.5801 6.5625 20.8594 6.5625C22.2885 6.56436 23.6585 7.1329 24.6691 8.14343C25.6796 9.15397 26.2481 10.524 26.25 11.9531C26.25 18.2355 17.1375 23.9238 15 25.1719Z" fill="#212426"/>
</svg>