<svg width="50" height="55" viewBox="0 0 50 55" fill="none" xmlns="http://www.w3.org/2000/svg">
  <g clip-path="url(#clip0_135_1687)">
    <mask id="mask0_135_1687" style="mask-type:luminance" maskUnits="userSpaceOnUse" x="0" y="0" width="50" height="55">
      <path d="M50 0H0V54.6016H50V0Z" fill="white"/>
    </mask>
    <g mask="url(#mask0_135_1687)">
      <path d="M48.5642 33.9038C49.3529 33.5733 50.2632 34.0539 50.1821 34.7896C49.9709 36.7081 49.4474 38.9721 48.8764 40.4805C47.717 43.543 45.1244 46.1241 42.3627 48.4382C37.8323 52.2339 31.6878 54.3662 25.2809 54.3662C18.874 54.3662 12.7295 52.2339 8.1991 48.4382C5.8727 46.4888 5.36871 44.845 2.99213 41.7381C2.8309 41.5273 2.69221 41.3063 2.59334 41.07C1.95856 39.5532 1.30394 37.164 0.641612 34.8199C0.276939 33.5293 2.10064 32.5041 3.36706 33.2999C3.72824 33.5269 4.18454 33.6201 4.62987 33.5579L4.82938 33.5301C6.12444 33.3492 7.29247 34.1863 7.33871 35.2857C7.39247 36.5641 7.52747 37.9342 7.86517 38.833C8.7227 41.1154 10.5614 43.0124 12.618 44.7356C15.9765 47.5495 18.8202 49.8945 25.2809 49.6592C30.0304 49.6592 35.1248 48.2367 38.4832 45.4229C40.1802 44.001 42.0856 41.5999 42.9775 39.7744C43.5822 38.5369 43.8882 36.346 44.0192 34.4618C44.0864 33.4969 45.3701 32.9077 46.3483 33.4199L47.5032 33.9038C47.8372 34.0437 48.2302 34.0437 48.5642 33.9038Z" fill="#212426"/>
      <path d="M48.4792 20.6206C48.5511 22.9101 48.6949 25.1996 48.8388 27.4891C48.9107 28.5736 49.2702 29.6581 49.2702 30.8028C49.2702 31.5861 48.8388 32.1886 47.832 32.1886C47.2567 32.1886 46.6815 31.9476 46.1062 31.7668C44.5961 31.4053 45.0275 31.8873 44.5242 30.5618C43.5893 27.7301 44.1646 9.23331 43.1579 8.57056C42.3669 8.63081 30.5017 25.0791 28.7039 27.8506C27.7691 29.2966 27.2657 30.7426 24.9646 30.7426C24.677 30.7426 24.3174 30.7426 24.0298 30.6823C21.2253 30.3208 21.1534 29.1761 19.859 27.3686C18.2051 25.0791 16.4073 22.8498 14.7534 20.5603C13.3871 18.5118 12.0208 16.4031 10.5107 14.4148C9.43202 13.0291 8.35337 11.7036 7.41854 10.2576C6.98708 9.59481 6.55562 8.26931 5.83652 7.78731C5.90843 11.8241 6.19607 15.8608 6.33989 19.8976C6.4118 23.5728 7.1309 27.1878 7.1309 30.8631C7.1309 32.1283 6.55562 32.1886 5.26124 32.1886C3.89494 32.1886 2.60056 31.5861 1.30618 31.5861C1.23427 31.5861 1.16236 31.5861 1.09045 31.6463C0.658989 31.4053 0.515169 30.8631 0.515169 30.4413C0.515169 28.7543 0.874719 27.0071 0.874719 25.3201C0.874719 19.6566 0.802809 14.0533 0.802809 8.45006C0.802809 6.88356 0.515169 5.25681 0.515169 3.69031C0.515169 2.96731 0.515169 0.43681 1.73764 0.43681C4.9736 0.43681 5.90843 0.37656 7.77809 2.72631C10.7983 6.58231 13.9624 10.3178 16.9826 14.1738C18.0612 15.6801 23.4545 24.0548 24.9646 24.0548C25.3961 24.0548 28.632 19.0541 29.2073 18.3311C32.1556 14.2943 35.4635 10.4383 38.4118 6.40156C39.3466 5.07606 41.0725 1.82256 42.7264 1.22006C43.4455 0.979058 45.3152 0.979058 46.1062 0.979058C47.9039 0.979058 48.1916 1.58156 48.1916 2.96731C48.1916 8.87181 48.3354 14.7161 48.4792 20.6206Z" fill="#212426"/>
    </g>
  </g>
  <defs>
    <clipPath id="clip0_135_1687">
      <rect width="50" height="54.6016" fill="white"/>
    </clipPath>
  </defs>
</svg>